<?xml version="1.0" encoding="UTF-8"?>
<svg version="1.1" xmlns="http://www.w3.org/2000/svg" width="291" height="359" >
<path d="M0 0 C1.91522658 -0.02299501 3.83053329 -0.0393768 5.74584961 -0.05297852 C6.81242294 -0.06281265 7.87899628 -0.07264679 8.97789001 -0.08277893 C21.36925186 0.25663416 33.42179226 7.49571017 42.25 15.75 C53.10742032 27.31792635 59.18703984 41.79521528 59.12025452 57.63095093 C59.12110894 58.37928401 59.12196337 59.12761708 59.12284368 59.89862692 C59.12448505 62.39517051 59.11899918 64.89164624 59.11352539 67.38818359 C59.1132432 69.18214924 59.11340187 70.97611499 59.1139679 72.77008057 C59.11425464 77.63321667 59.10837777 82.49632808 59.10139394 87.35945845 C59.09513994 92.44435978 59.09455498 97.52926168 59.09336853 102.61416626 C59.09026126 112.24003181 59.08205599 121.865886 59.07201904 131.49174654 C59.06083917 142.45177235 59.05534273 153.4117987 59.05032361 164.37182879 C59.03987289 186.91455883 59.02228511 209.45727878 59 232 C57.40872909 232.01707635 55.8174048 232.02922202 54.22607422 232.03930664 C53.33991425 232.04660294 52.45375427 232.05389923 51.54074097 232.06141663 C38.88419889 231.75547355 26.05504361 224.60345909 16.94140625 216.13671875 C10.35179754 208.88417154 4.73599433 200.46965912 2 191 C1.65913361 189.82683731 1.31826721 188.65367462 0.96707153 187.44496155 C-0.68821858 179.85204266 -0.26117354 172.00157002 -0.22705078 164.27124023 C-0.226486 162.47683214 -0.22680453 160.68242358 -0.22793579 158.88801575 C-0.22850769 154.03742282 -0.21677974 149.18692958 -0.20278788 144.33635974 C-0.19025338 139.25948773 -0.18910788 134.18261324 -0.18673706 129.10572815 C-0.18053028 119.5011956 -0.16413031 109.89670878 -0.14403808 100.29219633 C-0.12165412 89.35387083 -0.11067937 78.41554311 -0.10064721 67.47720039 C-0.07976337 44.98477494 -0.044603 22.49239004 0 0 Z " fill="#FFFFFF" transform="translate(116,0)"/>
<path d="M0 0 C1.61648438 0.01353516 1.61648438 0.01353516 3.265625 0.02734375 C4.08546875 0.03894531 4.9053125 0.05054688 5.75 0.0625 C5.84367221 23.2552142 5.914091 46.44789696 5.95724869 69.64076233 C5.97782514 80.41096339 6.00585119 91.18104653 6.05175781 101.95117188 C6.09177669 111.34449949 6.1174685 120.73774165 6.12635398 130.13115215 C6.13154335 135.09939346 6.14363647 140.06739042 6.17292023 145.03555298 C6.20032782 149.72396426 6.20839449 154.41203348 6.20243073 159.10051727 C6.20351974 160.80957659 6.21132126 162.51864888 6.2268219 164.22763824 C6.39134161 183.32365935 2.9139737 201.263899 -10.9375 215.4375 C-21.24162641 225.39563435 -34.38124586 232.23634088 -48.98364258 232.10180664 C-49.78522293 232.09613174 -50.58680328 232.09045685 -51.41267395 232.08460999 C-52.01899155 232.07731369 -52.62530914 232.0700174 -53.25 232.0625 C-53.32017639 208.40953409 -53.37303044 184.75658386 -53.40543652 161.1035347 C-53.4208852 150.1202572 -53.44193647 139.1370445 -53.47631836 128.15380859 C-53.50628194 118.57740285 -53.52558952 109.00104406 -53.53226548 99.42459273 C-53.53616596 94.35704086 -53.54529085 89.28962327 -53.56719017 84.22211456 C-53.58766536 79.44511217 -53.59381163 74.66829844 -53.58932304 69.89125633 C-53.59014333 68.14504913 -53.59604289 66.39883513 -53.60761642 64.65266609 C-53.72252458 46.40946234 -50.4889453 30.87419811 -37.55615234 17.22631836 C-27.55079969 7.12524481 -14.48421352 -0.1574371 0 0 Z " fill="#FFFFFF" transform="translate(285.25,-0.0625)"/>
<path d="M0 0 C0 38.61 0 77.22 0 117 C-16.0155034 117 -29.0928847 112.50533346 -40.75390625 101.2734375 C-41.49511719 100.52320313 -42.23632812 99.77296875 -43 99 C-43.64839844 98.37351562 -44.29679687 97.74703125 -44.96484375 97.1015625 C-54.55804876 87.15149866 -58.94219346 72.65983882 -59.375 59.0625 C-58.82250559 42.24457029 -52.76542045 27.47762194 -40.89453125 15.62890625 C-29.3383343 5.13319701 -15.52535301 0 0 0 Z " fill="#FFFFFF" transform="translate(59,115)"/>
<path d="M0 0 C6.62816801 3.95678158 12.79580517 10.18073583 15.09765625 17.703125 C16.62006514 26.63064896 16.56123474 35.33667403 11.5 43.0625 C6.83535644 49.5167964 1.55781063 54.51020723 -6.5 56.0625 C-16.70737762 57.03171013 -24.97870372 56.27727999 -33.5 50.0625 C-40.2931443 43.7052794 -43.41205882 35.83664061 -43.9375 26.625 C-43.61430456 18.68563371 -40.53850292 11.23516135 -35.0703125 5.4921875 C-25.9413653 -2.81924204 -11.3873825 -5.12785858 0 0 Z " fill="#FFFFFF" transform="translate(43.5,1.9375)"/>
<path d="M0 0 C2.9375 2.5625 2.9375 2.5625 5 5 C5 5.66 5 6.32 5 7 C2.75 8.75 2.75 8.75 0 10 C-2.0625 9.3125 -2.0625 9.3125 -4 8 C-7.85194103 5.72645519 -10.52919511 5.78697629 -14.875 6.39453125 C-17.26538404 6.90725256 -17.26538404 6.90725256 -19.5 9.25 C-21.92891374 13.70300852 -22.39096172 15.66613061 -20.9375 20.625 C-18.64090874 24.62551381 -17.3918966 25.67414442 -13 27 C-10.06778416 27.07774815 -7.9249716 26.67130496 -5 26 C-4.01 25.01 -3.02 24.02 -2 23 C-5.3 22.67 -8.6 22.34 -12 22 C-12 19.69 -12 17.38 -12 15 C-5.73 15 0.54 15 7 15 C7.48598131 23.99065421 7.48598131 23.99065421 5.375 28.375 C0.71117132 33.52975802 -3.4761818 35.72893706 -10.25 36.25 C-16.84846338 35.81010244 -22.20848987 33.65460984 -27 29 C-30.64544966 24.57338256 -31.11616992 19.57615625 -31 14 C-30.06674829 7.80479715 -27.74920217 3.91216038 -22.75 0.15234375 C-15.47242158 -4.63981168 -7.52059557 -4.1941783 0 0 Z " fill="#FFFFFF" transform="translate(143,271)"/>
<path d="M0 0 C4.74668347 3.35791582 7.50832244 7.56051019 8.7890625 13.265625 C9.30161754 18.8012194 8.56164825 23.45265044 5.7890625 28.265625 C1.19491301 33.52105359 -3.61903653 35.93304158 -10.5859375 36.578125 C-16.77859968 36.04427481 -21.32693677 34.63698955 -25.5859375 29.953125 C-29.62090965 24.72301164 -30.77854631 19.8498872 -30.2109375 13.265625 C-28.8096714 6.7051519 -25.70556316 2.99412099 -20.2109375 -0.734375 C-13.7619991 -4.46797092 -6.29339558 -3.56040706 0 0 Z M-18.2109375 8.265625 C-18.7884375 8.678125 -19.3659375 9.090625 -19.9609375 9.515625 C-21.99358219 12.36132756 -22.0939885 14.81562941 -22.2109375 18.265625 C-20.91400162 22.15643264 -19.53204159 23.98101001 -16.4609375 26.703125 C-12.39844502 28.65624638 -10.50933708 28.51606851 -6.2109375 27.265625 C-2.33763632 24.85557093 -0.27656008 22.74123986 0.7890625 18.265625 C0.70463857 14.29770007 -0.16195628 12.34429181 -2.2734375 8.953125 C-5.48496048 6.01492313 -7.06385771 5.32038548 -11.28515625 5.08984375 C-14.2102093 5.35683642 -15.9437878 6.45190524 -18.2109375 8.265625 Z " fill="#FFFFFF" transform="translate(238.2109375,270.734375)"/>
<path d="M0 0 C7 0 7 0 8.98803711 1.74414062 C9.4960083 2.54013672 10.00397949 3.33613281 10.52734375 4.15625 C11.37329102 5.44208984 11.37329102 5.44208984 12.23632812 6.75390625 C12.79771484 7.66011719 13.35910156 8.56632812 13.9375 9.5 C14.52595703 10.40621094 15.11441406 11.31242187 15.72070312 12.24609375 C17.16904212 14.48336537 18.58746879 16.73995006 20 19 C20.33 12.73 20.66 6.46 21 0 C23.64 0 26.28 0 29 0 C29 12.21 29 24.42 29 37 C22 37 22 37 20.11962891 35.45532227 C19.65991699 34.74947998 19.20020508 34.0436377 18.7265625 33.31640625 C18.21222656 32.55392578 17.69789063 31.79144531 17.16796875 31.00585938 C16.65878906 30.19955078 16.14960938 29.39324219 15.625 28.5625 C15.09261719 27.76005859 14.56023437 26.95761719 14.01171875 26.13085938 C13.03124068 24.6526577 12.06090948 23.16764153 11.10400391 21.67407227 C10.10656785 20.03956317 10.10656785 20.03956317 9 19 C8.67 24.94 8.34 30.88 8 37 C5.36 37 2.72 37 0 37 C0 24.79 0 12.58 0 0 Z " fill="#FFFFFF" transform="translate(165,269)"/>
<path d="M0 0 C7 0 7 0 8.88037109 1.54467773 C9.34008301 2.25052002 9.79979492 2.9563623 10.2734375 3.68359375 C10.78777344 4.44607422 11.30210937 5.20855469 11.83203125 5.99414062 C12.59580078 7.20360352 12.59580078 7.20360352 13.375 8.4375 C13.90738281 9.23994141 14.43976563 10.04238281 14.98828125 10.86914062 C15.96875932 12.3473423 16.93909052 13.83235847 17.89599609 15.32592773 C18.89343215 16.96043683 18.89343215 16.96043683 20 18 C20.33 12.06 20.66 6.12 21 0 C23.64 0 26.28 0 29 0 C29 12.21 29 24.42 29 37 C22 37 22 37 20.22729492 35.57885742 C19.81584229 34.92763916 19.40438965 34.2764209 18.98046875 33.60546875 C18.51576172 32.89712891 18.05105469 32.18878906 17.57226562 31.45898438 C17.11529297 30.70939453 16.65832031 29.95980469 16.1875 29.1875 C15.71119141 28.44951172 15.23488281 27.71152344 14.74414062 26.95117188 C13.86032044 25.57758354 12.98635582 24.19756621 12.12573242 22.80932617 C11.11569361 21.18594781 10.06055656 19.59083484 9 18 C8.67 24.27 8.34 30.54 8 37 C5.36 37 2.72 37 0 37 C0 24.79 0 12.58 0 0 Z " fill="#FFFFFF" transform="translate(261,269)"/>
<path d="M0 0 C1.37478516 0.01740234 1.37478516 0.01740234 2.77734375 0.03515625 C3.69644531 0.04417969 4.61554687 0.05320312 5.5625 0.0625 C6.27277344 0.07410156 6.98304687 0.08570313 7.71484375 0.09765625 C9.4320837 4.72111169 11.14082303 9.34758625 12.84179688 13.97705078 C13.42150633 15.55114999 14.00352019 17.12440253 14.58789062 18.69677734 C15.4279693 20.95841772 16.25968467 23.22298402 17.08984375 25.48828125 C17.3523291 26.18947083 17.61481445 26.8906604 17.88525391 27.61309814 C19.12558544 31.0224501 19.71484375 33.4167549 19.71484375 37.09765625 C16.74484375 37.09765625 13.77484375 37.09765625 10.71484375 37.09765625 C10.05484375 35.11765625 9.39484375 33.13765625 8.71484375 31.09765625 C4.42484375 30.76765625 0.13484375 30.43765625 -4.28515625 30.09765625 C-4.94515625 32.40765625 -5.60515625 34.71765625 -6.28515625 37.09765625 C-9.25515625 37.09765625 -12.22515625 37.09765625 -15.28515625 37.09765625 C-12.97023951 29.15973207 -10.37022832 21.34628334 -7.66015625 13.53515625 C-7.2528125 12.34857422 -6.84546875 11.16199219 -6.42578125 9.93945312 C-6.03648438 8.81474609 -5.6471875 7.69003906 -5.24609375 6.53125 C-4.89337402 5.51087646 -4.5406543 4.49050293 -4.17724609 3.43920898 C-2.91441929 0.12454783 -2.91441929 0.12454783 0 0 Z M1.71484375 11.09765625 C1.20924467 12.5331965 0.71056885 13.97117645 0.21484375 15.41015625 C-0.06359375 16.21066406 -0.34203125 17.01117188 -0.62890625 17.8359375 C-1.42448732 20.18535047 -1.42448732 20.18535047 -1.28515625 23.09765625 C1.35484375 23.09765625 3.99484375 23.09765625 6.71484375 23.09765625 C5.39484375 19.13765625 4.07484375 15.17765625 2.71484375 11.09765625 C2.38484375 11.09765625 2.05484375 11.09765625 1.71484375 11.09765625 Z " fill="#FFFFFF" transform="translate(15.28515625,268.90234375)"/>
<path d="M0 0 C2.97 0 5.94 0 9 0 C11.64 7.92 14.28 15.84 17 24 C19.64 16.08 22.28 8.16 25 0 C27.97 0 30.94 0 34 0 C32.45487455 8.16074878 29.71956431 15.7760743 26.875 23.5625 C26.40183891 24.87026016 25.92917879 26.1782017 25.45703125 27.48632812 C24.3095861 30.65936521 23.15712972 33.83048462 22 37 C18.7 37 15.4 37 12 37 C10.28711039 32.05342384 8.57821574 27.10549296 6.87304688 22.15625 C6.29211922 20.47194969 5.71009192 18.78802824 5.12695312 17.10449219 C4.29008842 14.68783188 3.45715747 12.2698471 2.625 9.8515625 C2.36251465 9.0963028 2.1000293 8.34104309 1.82958984 7.56289673 C0 2.22774341 0 2.22774341 0 0 Z " fill="#FFFFFF" transform="translate(43,269)"/>
<path d="M0 0 C5 0 5 0 6.66918945 1.56054688 C7.14573975 2.27275391 7.62229004 2.98496094 8.11328125 3.71875 C8.9012207 4.86923828 8.9012207 4.86923828 9.70507812 6.04296875 C10.23552734 6.85378906 10.76597656 7.66460937 11.3125 8.5 C11.86228516 9.31082031 12.41207031 10.12164062 12.97851562 10.95703125 C14.33423542 12.96113877 15.66913916 14.979299 17 17 C17.33 11.39 17.66 5.78 18 0 C19.65 0 21.3 0 23 0 C23 9.9 23 19.8 23 30 C18 29 18 29 16.33081055 27.23413086 C15.85426025 26.48526611 15.37770996 25.73640137 14.88671875 24.96484375 C14.0987793 23.75151367 14.0987793 23.75151367 13.29492188 22.51367188 C12.76447266 21.66353516 12.23402344 20.81339844 11.6875 19.9375 C10.86282227 18.65649414 10.86282227 18.65649414 10.02148438 17.34960938 C8.66730612 15.24180148 7.33182676 13.12200149 6 11 C5.67 17.27 5.34 23.54 5 30 C3.35 30 1.7 30 0 30 C0 20.1 0 10.2 0 0 Z " fill="#FFFFFF" transform="translate(39,329)"/>
<path d="M0 0 C3.8053125 -0.12375 3.8053125 -0.12375 7.6875 -0.25 C8.87218872 -0.30462402 8.87218872 -0.30462402 10.08081055 -0.36035156 C13.86410954 -0.41966741 15.65033321 -0.21635056 18.9609375 1.83203125 C21.55958267 4.59495859 21.92312046 6.23290278 22 10 C20.98173333 13.56393336 19.33051308 16.13982486 17 19 C17.3609375 19.54269531 17.721875 20.08539063 18.09375 20.64453125 C18.5578125 21.35996094 19.021875 22.07539063 19.5 22.8125 C19.9640625 23.52019531 20.428125 24.22789062 20.90625 24.95703125 C22 27 22 27 22 30 C19.68359375 30.30859375 19.68359375 30.30859375 17 30 C15.41015625 27.84765625 15.41015625 27.84765625 14.0625 25.0625 C11.9012573 20.79464108 11.9012573 20.79464108 7.625 18.875 C6.75875 18.91625 5.8925 18.9575 5 19 C5 22.63 5 26.26 5 30 C3.35 30 1.7 30 0 30 C0 20.1 0 10.2 0 0 Z M5 4 C5 7.3 5 10.6 5 14 C11.01246375 14.6436957 11.01246375 14.6436957 16.1875 12.3125 C17.25450273 9.95956968 17.25450273 9.95956968 16.3125 7.3125 C15.21242528 4.8740778 15.21242528 4.8740778 13 4 C11.62657169 3.9310528 10.24997898 3.91532292 8.875 3.9375 C6.956875 3.9684375 6.956875 3.9684375 5 4 Z " fill="#FFFFFF" transform="translate(158,329)"/>
<path d="M0 0 C3.0625 2.4375 3.0625 2.4375 5 5 C5 5.66 5 6.32 5 7 C2.6875 7.6875 2.6875 7.6875 0 8 C-0.680625 7.2884375 -0.680625 7.2884375 -1.375 6.5625 C-3.0683464 4.59255652 -3.0683464 4.59255652 -6.6875 4.8125 C-7.780625 4.874375 -8.87375 4.93625 -10 5 C-9.96609557 7.42903982 -9.96609557 7.42903982 -9 10 C-6.32147809 11.6282228 -6.32147809 11.6282228 -3.0625 12.6875 C2.85150376 14.85150376 2.85150376 14.85150376 5 17 C5.56120742 20.0600573 5.50644491 22.93410233 5 26 C3.125 28.5625 3.125 28.5625 0 30 C-4.64882702 30.6554084 -8.61780024 30.54712074 -13 28.8125 C-15.31696033 26.7127547 -16.11593727 24.97366555 -17 22 C-15.35 21.34 -13.7 20.68 -12 20 C-11.67 20.66 -11.34 21.32 -11 22 C-9.23173046 24.17282569 -9.23173046 24.17282569 -7.01953125 24.265625 C-5.01111857 24.25140615 -3.00415878 24.13142025 -1 24 C-0.67 22.35 -0.34 20.7 0 19 C-0.66386719 18.82984375 -1.32773438 18.6596875 -2.01171875 18.484375 C-11.95508754 15.75539203 -11.95508754 15.75539203 -15 12 C-15.64092374 9.19956746 -15.63831795 6.80054814 -15 4 C-10.73251782 -1.54772683 -6.46533432 -1.66092209 0 0 Z " fill="#FFFFFF" transform="translate(206,329)"/>
<path d="M0 0 C1.65 0 3.3 0 5 0 C5.01981934 0.62044189 5.03963867 1.24088379 5.06005859 1.88012695 C5.15531845 4.69134537 5.26499302 7.50182166 5.375 10.3125 C5.4059375 11.28896484 5.436875 12.26542969 5.46875 13.27148438 C5.50742188 14.20927734 5.54609375 15.14707031 5.5859375 16.11328125 C5.6173584 16.97735596 5.6487793 17.84143066 5.68115234 18.73168945 C5.87188037 21.27742445 5.87188037 21.27742445 8 24 C10.97 24 13.94 24 17 24 C17.33 16.08 17.66 8.16 18 0 C19.65 0 21.3 0 23 0 C23.11643304 3.89558088 23.18732909 7.79071258 23.25 11.6875 C23.30027344 13.34168945 23.30027344 13.34168945 23.3515625 15.02929688 C23.45073033 23.23543471 23.45073033 23.23543471 21.109375 27.20703125 C17.3510791 30.40158276 14.36028394 30.39332374 9.55078125 30.3515625 C5.36869978 29.77516536 3.77547914 28.1313098 1 25 C-0.04666587 21.9869309 -0.11699988 19.18797953 -0.09765625 16.015625 C-0.09443359 15.08105469 -0.09121094 14.14648438 -0.08789062 13.18359375 C-0.07951172 12.21550781 -0.07113281 11.24742187 -0.0625 10.25 C-0.05798828 9.26644531 -0.05347656 8.28289062 -0.04882812 7.26953125 C-0.03706483 4.84629209 -0.02062684 2.42317727 0 0 Z " fill="#FFFFFF" transform="translate(3,329)"/>
<path d="M0 0 C5.94 0 11.88 0 18 0 C18 1.32 18 2.64 18 4 C13.71 4 9.42 4 5 4 C5 6.64 5 9.28 5 12 C8.96 12 12.92 12 17 12 C17 13.65 17 15.3 17 17 C13.04 17 9.08 17 5 17 C5 19.64 5 22.28 5 25 C9.29 25 13.58 25 18 25 C18 26.65 18 28.3 18 30 C12.06 30 6.12 30 0 30 C0 20.1 0 10.2 0 0 Z " fill="#FFFFFF" transform="translate(272,329)"/>
<path d="M0 0 C5.94 0 11.88 0 18 0 C18 1.32 18 2.64 18 4 C13.71 4 9.42 4 5 4 C5 6.64 5 9.28 5 12 C8.96 12 12.92 12 17 12 C17 13.65 17 15.3 17 17 C13.04 17 9.08 17 5 17 C5 19.64 5 22.28 5 25 C9.29 25 13.58 25 18 25 C18 26.65 18 28.3 18 30 C12.06 30 6.12 30 0 30 C0 20.1 0 10.2 0 0 Z " fill="#FFFFFF" transform="translate(128,329)"/>
<path d="M0 0 C1.98 0 3.96 0 6 0 C7.00736628 2.93502595 8.00460504 5.87339461 9 8.8125 C9.28617188 9.64587891 9.57234375 10.47925781 9.8671875 11.33789062 C10.13789062 12.14033203 10.40859375 12.94277344 10.6875 13.76953125 C10.93886719 14.50792236 11.19023438 15.24631348 11.44921875 16.00708008 C12 18 12 18 12 21 C12.66 21 13.32 21 14 21 C14.17015625 20.00226563 14.17015625 20.00226563 14.34375 18.984375 C15.14976274 15.3189361 16.30254976 11.80129527 17.5 8.25 C17.72558594 7.56550781 17.95117188 6.88101562 18.18359375 6.17578125 C19.87327939 1.12672061 19.87327939 1.12672061 21 0 C22.66617115 -0.04063832 24.33388095 -0.042721 26 0 C25.33372522 3.82263641 24.26037893 7.31304378 22.93359375 10.95703125 C22.53076172 12.06884766 22.12792969 13.18066406 21.71289062 14.32617188 C21.29201172 15.47666016 20.87113281 16.62714844 20.4375 17.8125 C20.01275391 18.98232422 19.58800781 20.15214844 19.15039062 21.35742188 C18.10344692 24.23945793 17.05321116 27.12024968 16 30 C14.02 30 12.04 30 10 30 C8.57180601 26.05043587 7.14775072 22.09941203 5.72753906 18.14697266 C5.24365357 16.80216068 4.75863256 15.45775672 4.27246094 14.11376953 C3.57449334 12.18367547 2.88060102 10.25215863 2.1875 8.3203125 C1.76855469 7.15773926 1.34960938 5.99516602 0.91796875 4.79736328 C0 2 0 2 0 0 Z " fill="#FFFFFF" transform="translate(91,329)"/>
<path d="M0 0 C2.64 0 5.28 0 8 0 C8 12.21 8 24.42 8 37 C5.36 37 2.72 37 0 37 C0 24.79 0 12.58 0 0 Z " fill="#FFFFFF" transform="translate(90,269)"/>
<path d="M0 0 C7.26 0 14.52 0 22 0 C22 1.32 22 2.64 22 4 C19.03 4 16.06 4 13 4 C13 12.58 13 21.16 13 30 C11.35 30 9.7 30 8 30 C8 21.42 8 12.84 8 4 C5.36 4 2.72 4 0 4 C0 2.68 0 1.36 0 0 Z " fill="#FFFFFF" transform="translate(239,329)"/>
<path d="M0 0 C1.65 0 3.3 0 5 0 C5 9.9 5 19.8 5 30 C3.35 30 1.7 30 0 30 C0 20.1 0 10.2 0 0 Z " fill="#FFFFFF" transform="translate(223,329)"/>
<path d="M0 0 C1.32 0 2.64 0 4 0 C4 9.9 4 19.8 4 30 C2.68 30 1.36 30 0 30 C0 20.1 0 10.2 0 0 Z " fill="#FFFFFF" transform="translate(76,329)"/>
<path d="M0 0 C1.98 0 3.96 0 6 0 C4.79618552 2.49361571 3.54571278 4.68143083 2 7 C-0.625 7.1875 -0.625 7.1875 -3 7 C-1.125 2.25 -1.125 2.25 0 0 Z " fill="#FFFFFF" transform="translate(281,320)"/>
</svg>
